<svg width="27" height="34" viewBox="0 0 27 34" fill="none" xmlns="http://www.w3.org/2000/svg">
<path d="M15.2677 5.43237V0.682373H0.29126V33.3177H15.2677V28.5677C12.1998 28.5677 9.25747 27.3489 7.08816 25.1795C4.91881 23.0102 3.70008 20.068 3.70008 17C3.70008 13.9321 4.91881 10.9898 7.08816 8.82047C9.25747 6.65111 12.1998 5.43237 15.2677 5.43237Z" fill="#6C6DF8"/>
<path d="M15.2677 5.43237V28.5677C18.3357 28.5677 21.2778 27.3489 23.4472 25.1795C25.6165 23.0102 26.8352 20.068 26.8352 17C26.8352 13.9321 25.6165 10.9898 23.4472 8.82047C21.2778 6.65111 18.3357 5.43237 15.2677 5.43237Z" fill="#44C5B2"/>
</svg>
